<?xml version="1.0" encoding="UTF-8"?>
<!DOCTYPE svg PUBLIC "-//W3C//DTD SVG 1.1//EN" "http://www.w3.org/Graphics/SVG/1.1/DTD/svg11.dtd">
<!-- Creator: CorelDRAW X7 -->
<svg xmlns="http://www.w3.org/2000/svg" xml:space="preserve" width="7.91401in" height="0.960969in" version="1.1" style="shape-rendering:geometricPrecision; text-rendering:geometricPrecision; image-rendering:optimizeQuality; fill-rule:evenodd; clip-rule:evenodd"
viewBox="0 0 7914 961"
 xmlns:xlink="http://www.w3.org/1999/xlink">
 <defs>
  <style type="text/css">
   <![CDATA[
    .fil0 {fill:#FEFEFE;fill-rule:nonzero}
   ]]>
  </style>
 </defs>
 <g id="Layer_x0020_1">
  <metadata id="CorelCorpID_0Corel-Layer"/>
  <path class="fil0" d="M7544 961c-12,0 -22,-4 -31,-13 -55,-56 -71,-118 -71,-264 0,-59 -14,-72 -29,-72 -26,0 -90,17 -252,326 -7,14 -23,23 -39,23 -26,0 -44,-22 -44,-44 0,-259 -52,-349 -102,-349 -13,0 -32,6 -57,30 -8,9 -19,14 -30,14 -24,0 -44,-21 -44,-44 0,-12 4,-22 13,-31 34,-33 73,-57 118,-57 123,0 168,136 182,281 111,-184 181,-237 255,-237 102,0 116,103 116,160 0,146 14,171 46,203 8,8 13,19 13,30 0,24 -21,44 -44,44zm94 -511l0 -157 -59 0 0 -21 141 0 0 21 -59 0 0 157 -23 0zm106 0l0 -178 35 0 42 126c4,12 7,21 9,26 2,-6 5,-16 10,-28l42 -124 32 0 0 178 -23 0 0 -149 -52 149 -21 0 -51 -152 0 152 -23 0zm-7671 336c-19,0 -38,-14 -42,-33 -15,-58 -31,-123 -31,-229 0,-108 33,-364 204,-364 74,0 131,57 131,131 0,105 -44,149 -44,219 0,35 13,42 41,45 140,14 250,43 250,158 0,159 -209,248 -335,248 -48,0 -96,-20 -132,-57 -9,-9 -13,-19 -13,-30 0,-24 20,-44 44,-44 11,0 21,4 30,13 22,22 47,31 71,31 108,0 248,-86 248,-161 0,-30 -20,-56 -172,-71 -59,-6 -119,-51 -119,-132 0,-105 43,-149 43,-219 0,-27 -16,-43 -43,-43 -63,0 -117,151 -117,276 0,98 13,150 28,208 1,3 1,8 1,11 0,21 -17,43 -43,43zm4238 -218c-102,0 -219,125 -219,233 0,49 22,73 58,73l14 0c37,0 113,-14 195,-230 -2,-6 7,-30 7,-35 0,-28 -22,-41 -55,-41zm247 393c-6,0 -13,-2 -19,-4 -11,-6 -112,-64 -112,-244l0 -4c-99,237 -223,252 -277,252 -94,0 -145,-79 -145,-160 0,-155 145,-321 306,-321 36,0 64,3 91,27 40,-149 61,-277 83,-468 3,-22 22,-39 44,-39 28,0 44,25 44,45 0,15 -8,82 -11,109 -13,144 -32,321 -43,472 -3,36 -5,69 -5,87 0,131 61,165 64,166 15,9 24,24 24,38 0,26 -22,44 -44,44zm-903 -393c-74,0 -131,64 -131,145 0,28 5,53 13,73 80,0 176,-87 176,-160 0,-35 -23,-58 -58,-58zm-218 145c0,-122 89,-233 218,-233 82,0 146,65 146,146 0,109 -95,204 -192,236 17,7 37,12 61,12 54,0 87,-5 156,-40 5,-3 13,-4 18,-4 22,0 44,17 44,44 0,16 -10,32 -25,39 -77,38 -131,48 -193,48 -140,0 -233,-109 -233,-248zm-408 -145c-102,0 -218,125 -218,233 0,49 21,73 58,73l13 0c38,0 114,-14 195,-230 -1,-6 7,-30 7,-35 0,-28 -21,-41 -55,-41zm248 393c-6,0 -14,-2 -19,-4 -12,-6 -113,-64 -113,-244l0 -4c-99,237 -222,252 -276,252 -95,0 -146,-79 -146,-160 0,-155 146,-321 306,-321 36,0 64,3 92,27 39,-149 61,-277 83,-468 3,-22 22,-39 43,-39 28,0 44,25 44,45 0,15 -7,82 -10,109 -13,144 -32,321 -44,472 -3,36 -4,69 -4,87 0,131 61,165 64,166 14,9 23,24 23,38 0,26 -22,44 -43,44zm-714 0c-12,0 -22,-4 -31,-13 -55,-55 -71,-118 -71,-264 0,-59 -15,-72 -29,-72 -26,0 -90,17 -252,326 -7,14 -23,23 -39,23 -27,0 -44,-22 -44,-44 0,-259 -52,-349 -102,-349 -13,0 -32,6 -57,30 -8,9 -19,14 -30,14 -24,0 -44,-21 -44,-44 0,-12 4,-22 13,-31 34,-33 73,-57 118,-57 122,0 168,136 182,281 111,-184 181,-237 255,-237 102,0 116,104 116,160 0,146 13,171 45,203 9,8 14,19 14,30 0,24 -21,44 -44,44zm-1049 -393c-74,0 -131,64 -131,145 0,28 5,53 14,73 80,0 176,-87 176,-160 0,-35 -24,-58 -59,-58zm-218 145c0,-122 89,-233 218,-233 82,0 146,65 146,146 0,109 -95,204 -192,236 17,7 38,12 61,12 54,0 87,-5 156,-40 6,-3 13,-4 19,-4 22,0 43,17 43,44 0,16 -10,32 -24,39 -77,38 -131,48 -194,48 -140,0 -233,-109 -233,-248zm-481 -101c0,-12 5,-22 14,-31 109,-109 147,-229 147,-333 0,-81 -41,-117 -59,-117 -29,0 -49,18 -78,89 -31,77 -53,234 -53,406 0,146 43,248 146,248 58,0 105,-21 173,-89 9,-9 19,-13 31,-13 23,0 43,20 43,43 0,12 -4,22 -13,31 -77,77 -147,115 -234,115 -188,0 -233,-189 -233,-335 0,-178 19,-341 58,-438 29,-74 73,-144 160,-144 99,0 146,109 146,204 0,128 -49,270 -173,394 -9,9 -19,13 -31,13 -23,0 -44,-20 -44,-43zm5797 29c-19,0 -35,-14 -41,-31 -8,-25 -36,-42 -61,-42 -102,0 -218,125 -218,233 0,49 22,73 58,73 83,0 175,-56 258,-159 8,-10 20,-16 33,-16 25,0 44,23 44,44 0,67 13,116 36,149 5,8 8,17 8,25 0,22 -19,44 -44,44 -48,0 -69,-79 -77,-118 -76,71 -165,118 -258,118 -95,0 -146,-79 -146,-160 0,-155 146,-320 306,-320 63,0 122,40 143,103 1,4 3,9 3,13 0,22 -18,44 -44,44zm-757 -73c-74,0 -131,64 -131,145 0,28 4,53 13,73 80,0 176,-87 176,-160 0,-35 -23,-58 -58,-58zm-219 145c0,-122 89,-232 219,-232 81,0 145,64 145,145 0,109 -94,204 -192,236 18,7 38,12 61,12 54,0 88,-5 156,-40 6,-3 13,-4 19,-4 22,0 44,17 44,44 0,16 -10,32 -25,39 -77,38 -131,48 -194,48 -139,0 -233,-109 -233,-248zm-626 73c-19,0 -38,-14 -42,-33 -15,-58 -31,-123 -31,-229 0,-108 34,-364 204,-364 74,0 131,57 131,131 0,105 -43,149 -43,219 0,35 13,42 40,45 140,14 251,43 251,158 0,159 -210,248 -335,248 -48,0 -96,-20 -133,-57 -8,-9 -13,-19 -13,-30 0,-24 21,-44 44,-44 12,0 22,4 31,13 21,22 46,31 71,31 108,0 247,-86 247,-161 0,-30 -20,-56 -171,-71 -60,-6 -120,-51 -120,-132 0,-105 44,-149 44,-219 0,-27 -16,-44 -44,-44 -62,0 -116,152 -116,277 0,98 13,150 27,208 2,3 2,8 2,11 0,21 -18,43 -44,43z"/>
 </g>
</svg>
